<svg xmlns="http://www.w3.org/2000/svg" viewBox="0 0 64 64" width="64" height="64">
  <defs>
    <linearGradient id="pfBg" x1="0" y1="0" x2="1" y2="1">
      <stop offset="0" stop-color="#1f5480"/>
      <stop offset="1" stop-color="#0f2742"/>
    </linearGradient>
    <linearGradient id="pfLine" x1="0" y1="1" x2="1" y2="0">
      <stop offset="0" stop-color="#2fbf8f"/>
      <stop offset="1" stop-color="#e6b54a"/>
    </linearGradient>
    <linearGradient id="pfArea" x1="0" y1="0" x2="0" y2="1">
      <stop offset="0" stop-color="#2fbf8f" stop-opacity="0.30"/>
      <stop offset="1" stop-color="#2fbf8f" stop-opacity="0"/>
    </linearGradient>
  </defs>
  <rect x="2" y="2" width="60" height="60" rx="15" fill="url(#pfBg)"/>
  <path d="M12 22H52M12 34H52M12 46H52" stroke="#ffffff" stroke-opacity="0.07" stroke-width="1"/>
  <path d="M12 46 L24 35 L31 39 L42 25 L42 50 L12 50 Z" fill="url(#pfArea)"/>
  <path d="M12 46 L24 35 L31 39 L42 25" fill="none" stroke="url(#pfLine)" stroke-width="4" stroke-linecap="round" stroke-linejoin="round"/>
  <path d="M42 25 L49 18.2" fill="none" stroke="#e6b54a" stroke-width="4" stroke-linecap="round" stroke-dasharray="0.1 7"/>
  <path d="M46 13.5 H52.5 V20" fill="none" stroke="#e6b54a" stroke-width="4" stroke-linecap="round" stroke-linejoin="round"/>
  <circle cx="12" cy="46" r="2.3" fill="#eaf2fb"/>
  <circle cx="24" cy="35" r="2.3" fill="#eaf2fb"/>
  <circle cx="31" cy="39" r="2.3" fill="#eaf2fb"/>
  <circle cx="42" cy="25" r="2.8" fill="#ffffff"/>
</svg>
